<svg xmlns="http://www.w3.org/2000/svg" width="259" height="102" viewBox="0 0 259 102">
<g transform="translate(8,8) scale(0.86)"><path d="M31 42 L31 88 L69 88 L69 42" fill="none" stroke="#0F1526" stroke-width="3" stroke-linejoin="round" stroke-linecap="round"></path><path d="M31 42 L44 24 L56 24 L69 42 Z" fill="none" stroke="#0F1526" stroke-width="3" stroke-linejoin="round" stroke-linecap="round"></path><path d="M44 24 L44 16 L56 16 L56 24" fill="none" stroke="#0F1526" stroke-width="3" stroke-linejoin="round" stroke-linecap="round"></path><path d="M35 42 L65 42" stroke="#0F1526" stroke-width="2" stroke-linecap="round" opacity="0.35" fill="none"></path><path d="M50 55 C50 55 41 66 41 71.5 a9 9 0 0 0 18 0 C59 66 50 55 50 55 Z" fill="#0F1526"></path></g><rect x="114" y="8" width="1" height="86" fill="rgba(15,21,38,0.2)"></rect><g transform="translate(135,42.76)"><path d="M8.23 0.38L8.23 0.38Q6.32 0.38 4.77-0.43Q3.21-1.24 2.31-2.78Q1.40-4.32 1.40-6.48L1.40-6.48L1.40-6.83Q1.40-8.99 2.31-10.52Q3.21-12.04 4.77-12.87Q6.32-13.69 8.23-13.69L8.23-13.69Q10.15-13.69 11.50-12.99Q12.85-12.29 13.68-11.12Q14.50-9.96 14.74-8.56L14.74-8.56L12.04-7.99Q11.91-8.88 11.47-9.61Q11.04-10.34 10.26-10.77Q9.48-11.21 8.29-11.21L8.29-11.21Q7.13-11.21 6.20-10.68Q5.26-10.15 4.72-9.17Q4.18-8.18 4.18-6.78L4.18-6.78L4.18-6.53Q4.18-5.13 4.72-4.13Q5.26-3.13 6.20-2.62Q7.13-2.11 8.29-2.11L8.29-2.11Q10.04-2.11 10.96-3.01Q11.88-3.92 12.12-5.32L12.12-5.32L14.82-4.70Q14.50-3.32 13.68-2.16Q12.85-1.00 11.50-0.31Q10.15 0.38 8.23 0.38ZM22.44 0L19.66 0L19.66-13.31L22.38-13.31L22.38-11.74L22.81-11.74Q23.14-12.58 23.85-12.97Q24.57-13.37 25.62-13.37L25.62-13.37L27.22-13.37L27.22-10.85L25.52-10.85Q24.16-10.85 23.30-10.11Q22.44-9.37 22.44-7.83L22.44-7.83L22.44 0ZM37.34 0.38L37.34 0.38Q35.32 0.38 33.80-0.47Q32.29-1.32 31.44-2.88Q30.59-4.43 30.59-6.48L30.59-6.48L30.59-6.80Q30.59-8.88 31.43-10.44Q32.27-11.99 33.76-12.84Q35.26-13.69 37.23-13.69L37.23-13.69Q39.15-13.69 40.59-12.84Q42.04-11.99 42.85-10.48Q43.66-8.96 43.66-6.94L43.66-6.94L43.66-5.89L33.43-5.89Q33.48-4.13 34.60-3.09Q35.72-2.05 37.39-2.05L37.39-2.05Q38.96-2.05 39.76-2.75Q40.55-3.46 40.99-4.37L40.99-4.37L43.28-3.19Q42.90-2.43 42.19-1.59Q41.47-0.76 40.31-0.19Q39.15 0.38 37.34 0.38ZM33.45-8.02L33.45-8.02L40.82-8.02Q40.72-9.53 39.74-10.38Q38.77-11.23 37.21-11.23L37.21-11.23Q35.64-11.23 34.65-10.38Q33.67-9.53 33.45-8.02ZM52.76 0.38L52.76 0.38Q51.33 0.38 50.21-0.11Q49.09-0.59 48.42-1.54Q47.76-2.48 47.76-3.83L47.76-3.83Q47.76-5.21 48.42-6.12Q49.09-7.02 50.23-7.48Q51.38-7.94 52.84-7.94L52.84-7.94L56.89-7.94L56.89-8.80Q56.89-9.96 56.19-10.66Q55.48-11.37 54.03-11.37L54.03-11.37Q52.60-11.37 51.84-10.69Q51.08-10.02 50.84-8.94L50.84-8.94L48.25-9.77Q48.57-10.85 49.29-11.73Q50.00-12.61 51.19-13.15Q52.38-13.69 54.05-13.69L54.05-13.69Q56.65-13.69 58.13-12.37Q59.62-11.04 59.62-8.61L59.62-8.61L59.62-3.13Q59.62-2.32 60.37-2.32L60.37-2.32L61.51-2.32L61.51 0L59.43 0Q58.48 0 57.89-0.49Q57.29-0.97 57.29-1.81L57.29-1.81L57.29-1.89L56.89-1.89Q56.67-1.48 56.24-0.94Q55.81-0.40 54.97-0.01Q54.13 0.38 52.76 0.38ZM53.16-1.92L53.16-1.92Q54.84-1.92 55.86-2.88Q56.89-3.83 56.89-5.51L56.89-5.51L56.89-5.78L53.00-5.78Q51.89-5.78 51.22-5.31Q50.54-4.83 50.54-3.92L50.54-3.92Q50.54-3.00 51.25-2.46Q51.95-1.92 53.16-1.92ZM73.57 0L69.90 0Q68.69 0 67.97-0.73Q67.26-1.46 67.26-2.67L67.26-2.67L67.26-10.96L63.58-10.96L63.58-13.31L67.26-13.31L67.26-17.71L70.04-17.71L70.04-13.31L74.01-13.31L74.01-10.96L70.04-10.96L70.04-3.16Q70.04-2.35 70.79-2.35L70.79-2.35L73.57-2.35L73.57 0ZM81.67 0L78.89 0L78.89-13.31L81.67-13.31L81.67 0ZM80.30-15.12L80.30-15.12Q79.49-15.12 78.93-15.65Q78.38-16.17 78.38-17.01L78.38-17.01Q78.38-17.85 78.93-18.37Q79.49-18.90 80.30-18.90L80.30-18.90Q81.14-18.90 81.67-18.37Q82.22-17.85 82.22-17.01L82.22-17.01Q82.22-16.17 81.67-15.65Q81.14-15.12 80.30-15.12ZM94.93 0L90.50 0L86.02-13.31L88.97-13.31L92.50-2.05L92.93-2.05L96.47-13.31L99.41-13.31L94.93 0ZM109.38 0.38L109.38 0.38Q107.35 0.38 105.84-0.47Q104.33-1.32 103.48-2.88Q102.63-4.43 102.63-6.48L102.63-6.48L102.63-6.80Q102.63-8.88 103.46-10.44Q104.30-11.99 105.80-12.84Q107.30-13.69 109.27-13.69L109.27-13.69Q111.19-13.69 112.63-12.84Q114.08-11.99 114.89-10.48Q115.70-8.96 115.70-6.94L115.70-6.94L115.70-5.89L105.46-5.89Q105.52-4.13 106.64-3.09Q107.76-2.05 109.43-2.05L109.43-2.05Q111.00-2.05 111.79-2.75Q112.59-3.46 113.02-4.37L113.02-4.37L115.32-3.19Q114.94-2.43 114.22-1.59Q113.51-0.76 112.35-0.19Q111.19 0.38 109.38 0.38ZM105.49-8.02L105.49-8.02L112.86-8.02Q112.75-9.53 111.78-10.38Q110.81-11.23 109.24-11.23L109.24-11.23Q107.68-11.23 106.69-10.38Q105.71-9.53 105.49-8.02Z" fill="#0F1526"></path></g><g transform="translate(135,77.76)"><path d="M4.83 0L2.05 0L2.05-13.31L4.78-13.31L4.78-11.74L5.21-11.74Q5.59-12.45 6.43-12.99Q7.26-13.53 8.69-13.53L8.69-13.53Q10.18-13.53 11.08-12.92Q11.99-12.31 12.45-11.37L12.45-11.37L12.88-11.37Q13.34-12.29 14.22-12.91Q15.09-13.53 16.71-13.53L16.71-13.53Q18.01-13.53 19.01-13.00Q20.01-12.47 20.60-11.43Q21.20-10.39 21.20-8.86L21.20-8.86L21.20 0L18.41 0L18.41-8.64Q18.41-9.86 17.75-10.52Q17.09-11.18 15.88-11.18L15.88-11.18Q14.58-11.18 13.80-10.34Q13.01-9.50 13.01-7.94L13.01-7.94L13.01 0L10.23 0L10.23-8.64Q10.23-9.86 9.57-10.52Q8.91-11.18 7.70-11.18L7.70-11.18Q6.40-11.18 5.62-10.34Q4.83-9.50 4.83-7.94L4.83-7.94L4.83 0ZM29.59 0L26.81 0L26.81-13.31L29.59-13.31L29.59 0ZM28.21-15.12L28.21-15.12Q27.41-15.12 26.85-15.65Q26.30-16.17 26.30-17.01L26.30-17.01Q26.30-17.85 26.85-18.37Q27.41-18.90 28.21-18.90L28.21-18.90Q29.05-18.90 29.59-18.37Q30.13-17.85 30.13-17.01L30.13-17.01Q30.13-16.17 29.59-15.65Q29.05-15.12 28.21-15.12ZM38.12 0L35.34 0L35.34-18.90L38.12-18.90L38.12 0ZM46.66 0L43.87 0L43.87-18.90L46.66-18.90L46.66-8.13L47.09-8.13L52.33-13.31L56.02-13.31L49.30-6.86L56.24 0L52.57 0L47.09-5.54L46.66-5.54L46.66 0Z" fill="#0F1526"></path><path transform="translate(58.32,0)" d="M3.73 0.38L3.73 0.38Q2.78 0.38 2.15-0.24Q1.51-0.86 1.51-1.84L1.51-1.84Q1.51-2.81 2.15-3.42Q2.78-4.02 3.73-4.02L3.73-4.02Q4.67-4.02 5.31-3.40Q5.94-2.78 5.94-1.84L5.94-1.84Q5.94-0.86 5.31-0.24Q4.67 0.38 3.73 0.38Z" fill="#0F1526"></path></g>
</svg>