<svg width="64" height="64" viewBox="0 0 64 64" fill="none" xmlns="http://www.w3.org/2000/svg">
  <!-- Black rounded square background -->
  <rect width="64" height="64" rx="12" fill="#000000"/>

  <!-- Brain icon in white -->
  <g transform="translate(16, 16)">
    <path d="M12 5a3 3 0 1 0-5.997.125 4 4 0 0 0-2.526 5.77 4 4 0 0 0 .556 6.588A4 4 0 1 0 12 18Z" stroke="white" stroke-width="2" stroke-linecap="round" stroke-linejoin="round" fill="none"/>
    <path d="M12 5a3 3 0 1 1 5.997.125 4 4 0 0 1 2.526 5.77 4 4 0 0 1-.556 6.588A4 4 0 1 1 12 18Z" stroke="white" stroke-width="2" stroke-linecap="round" stroke-linejoin="round" fill="none"/>
    <path d="M15 13a4.5 4.5 0 0 1-3-4 4.5 4.5 0 0 1-3 4" stroke="white" stroke-width="2" stroke-linecap="round" stroke-linejoin="round" fill="none"/>
    <path d="M17.5 11.5a3 3 0 0 0-2.5-2.5" stroke="white" stroke-width="2" stroke-linecap="round" stroke-linejoin="round" fill="none"/>
    <path d="M9 11.5a3 3 0 0 1 2.5-2.5" stroke="white" stroke-width="2" stroke-linecap="round" stroke-linejoin="round" fill="none"/>
  </g>
</svg>
