<?xml version="1.0" encoding="UTF-8" standalone="no"?>
<svg
   xmlns:dc="http://purl.org/dc/elements/1.1/"
   xmlns:cc="http://creativecommons.org/ns#"
   xmlns:rdf="http://www.w3.org/1999/02/22-rdf-syntax-ns#"
   xmlns:svg="http://www.w3.org/2000/svg"
   xmlns="http://www.w3.org/2000/svg"
   style="overflow:visible"
   xml:space="preserve"
   enable-background="new 0 0 192.756 192.756"
   overflow="visible"
   viewBox="0 0 164.41001 37.99849"
   height="37.998489"
   width="164.41"
   id="Layer_1"
   version="1.1"><metadata
     id="metadata23"><rdf:RDF><cc:Work
         rdf:about=""><dc:format>image/svg+xml</dc:format><dc:type
           rdf:resource="http://purl.org/dc/dcmitype/StillImage" /><dc:title></dc:title></cc:Work></rdf:RDF></metadata><defs
     id="defs21" /><polygon
     transform="translate(-14.173,-77.377823)"
     style="clip-rule:evenodd;fill:#006bad;fill-rule:evenodd"
     id="polygon5"
     points="148.356,114.82 148.356,78.109 157.167,78.109 157.167,108.22 157.167,108.22 178.583,108.22 178.583,114.82 " /><polygon
     transform="translate(-14.173,-77.377823)"
     style="clip-rule:evenodd;fill:#006bad;fill-rule:evenodd"
     id="polygon7"
     points="14.487,78.054 14.487,78.054 57.02,111.32 24.35,78.054 " /><path
     style="clip-rule:evenodd;fill:#006bad;fill-rule:evenodd"
     id="path9"
     d="M 19.931,0.67617667 43.582,32.940177 C 40.023,22.169177 32.897,8.6381767 28.882,0.67617667 l -8.951,0 0,0 z" /><path
     style="clip-rule:evenodd;fill:#006bad;fill-rule:evenodd"
     id="path11"
     d="m 37.758,0.67617667 8.722,0 c 0,0 0.083,23.77500033 0.023,27.88200033 -0.056,3.879 -1.358,8.807 -8.95,8.887 -8.053,0.086 -37.553,0 -37.553,0 l 0,-8.983 c 0,0 34.98,6.76 38.539,7.397 3.56,0.64 7.319,-0.912 6.042,-6.48 -1.278,-5.569 -6.823,-28.70300033 -6.823,-28.70300033 l 0,0 z" /><path
     style="clip-rule:evenodd;fill:#006bad;fill-rule:evenodd"
     id="path13"
     d="m 0,10.114177 c 0,0 37.833,22.186 39.383,23.098 1.553,0.913 2.556,1.461 2.556,1.461 -3.194,-0.183 -5.932,-1.461 -7.392,-2.009 -1.46,-0.548 -34.546,-13.438 -34.546,-13.438 l 0,-9.112 -0.001,0 z" /><path
     style="clip-rule:evenodd;fill:#006bad;fill-rule:evenodd"
     id="path15"
     d="m 130.125,11.658177 -9.051,0 0.002,-0.059 C 121.055,6.0811767 118.187,6.3531767 110.424,6.3041767 99.937,6.2371767 99,7.5171767 98.902,14.788177 l 0.029,8.627 c 0.153,7.875 1.295,8.585 11.582,8.549 8.393,-0.031 10.898,-0.102 10.873,-7.225 l 0,-0.244 -11.258,-0.012 0,-6.501 20.158,0 0.02,0.03 0.243,6.696 c 0.039,11.137 -3.371,13.147 -20.015,13.285 -14.922,0.123 -20.677,-1.806 -20.722,-14.545 l -0.03,-9.037 C 89.735,1.4801767 95.248,0.05417667 110.402,0.00117667 c 10.617,-0.037 19.984,0.734 19.74,11.61600033 l -0.017,0.041 0,0 z" /><path
     style="clip-rule:evenodd;fill:#006bad;fill-rule:evenodd"
     id="path17"
     d="m 75.485,0.73117667 -12.972,0 -15.234,36.71100033 9.116,0 4.622,-11.358 16.389,-0.003 4.686,11.361 8.934,0 -15.541,-36.71100033 0,0 0,0 0,0 z M 63.603,19.629177 69.122,6.1171767 l 0.123,0 5.53,13.5120003 -11.172,0 0,0 z" /></svg>