<?xml version="1.0" encoding="utf-8"?>
<!-- Generator: Adobe Illustrator 19.0.0, SVG Export Plug-In . SVG Version: 6.00 Build 0)  -->
<svg version="1.1" id="Layer_1" xmlns="http://www.w3.org/2000/svg" xmlns:xlink="http://www.w3.org/1999/xlink" x="0px" y="0px"
	 viewBox="-293 -54 431 166" style="enable-background:new -293 -54 431 166;" xml:space="preserve">
<style type="text/css">
	.st0{fill:#2A2A2A;}
	.st1{fill:#FC5400;}
</style>
<g id="Layer_2">
	<g id="Layer_1-2">
		<path class="st0" d="M-212.7,100.4c-0.3-0.5-0.7-1.2-1.2-2.3c-0.6-1.3-1.3-2.6-2.1-3.8c-0.5-0.9-1.3-1.6-2.3-2
			c1.4-0.4,2.7-1.4,3.5-2.6c0.8-1.2,1.2-2.6,1.2-4.1c0.1-1.3-0.3-2.6-0.9-3.7c-0.7-1-1.8-1.7-2.9-2.1c-1.7-0.5-3.4-0.7-5.2-0.7
			c-0.7,0-1.7,0-2.8,0h-1.1h-6.2v2l2.4,0.4v19.5l-2.5,0.3v1.9h10.2v-2l-2.9-0.3v-8h3.3c0.7,0.4,1.3,1,1.6,1.8
			c0.7,1.3,1.3,2.7,1.8,4.1c0.4,1.1,0.9,2.2,1.5,3.3c0.4,0.7,0.7,1.1,1.1,1.1h5.5v-2l-1.1-0.3C-212.2,101-212.5,100.7-212.7,100.4z
			 M-219.7,89.7c-0.7,0.9-1.8,1.4-2.9,1.3h-1.1c-1,0-1.6,0-1.9,0v-9.7h0.8c0.5,0,1,0,1.5,0c1.3-0.1,2.6,0.3,3.5,1.1
			c0.7,1,1.1,2.2,1,3.5C-218.7,87.3-219,88.6-219.7,89.7z M-201.9,84.9c-1.6,0-3.2,0.4-4.5,1.1c-1.3,0.8-2.3,1.9-2.9,3.3
			c-0.7,1.6-1.1,3.3-1.1,5c-0.1,2.5,0.6,4.9,2.1,6.8c1.6,1.7,4,2.7,6.3,2.5c1.4,0,2.7-0.3,4-0.8c1.1-0.4,2.1-1,2.9-1.7l-0.8-1.8
			c-0.7,0.4-1.4,0.8-2.1,1c-0.8,0.3-1.7,0.4-2.6,0.4c-1.4,0.1-2.7-0.5-3.6-1.6c-0.9-1.3-1.4-2.9-1.4-4.5h10.5c0.2-1,0.3-2.1,0.3-3.2
			c0-1.8-0.8-3.5-2.1-4.7C-198.3,85.5-200.1,84.9-201.9,84.9L-201.9,84.9z M-199.7,92.6h-6.2c-0.1-1.5,0.3-3.1,1-4.4
			c0.6-0.8,1.5-1.3,2.4-1.3c1.9,0,2.9,1.4,2.9,4.3C-199.6,91.7-199.6,92.2-199.7,92.6z M-178.7,91.5c0-1.3-0.2-2.6-0.6-3.8
			c-0.4-0.9-1.1-1.6-2-2.1c-1.2-0.5-2.5-0.7-3.9-0.6c-1.1,0-2.2,0.1-3.3,0.4c-0.9,0.2-1.9,0.6-2.7,1c-0.6,0.3-1.1,0.6-1.6,1l1,2.1
			c0.9-0.4,1.7-0.8,2.6-1.1c0.9-0.3,1.9-0.4,2.9-0.4c0.7,0,1.4,0.1,2.1,0.4c0.5,0.2,0.8,0.6,1,1.1c0.2,0.7,0.3,1.4,0.3,2.1v0.8
			c-2.6-0.1-5.2,0.4-7.6,1.5c-1.8,0.7-2.9,2.5-2.9,4.4c0,1,0.2,2,0.7,2.9c0.5,0.8,1.2,1.4,2,1.8c0.8,0.4,1.8,0.7,2.7,0.6
			c1.1,0,2.2-0.3,3.1-0.8c0.8-0.5,1.6-1,2.3-1.7v0.9c-0.1,0.5,0.1,0.9,0.4,1.3c0.4,0.3,1,0.4,1.5,0.3c0.7,0,1.4-0.1,2.1-0.2
			c0.6-0.1,1.2-0.2,1.8-0.3v-1.8h-1.9V91.5z M-183,99.5c-0.5,0.4-1,0.7-1.5,1c-0.5,0.2-1,0.4-1.6,0.4c-0.7,0-1.5-0.3-2-0.8
			c-0.5-0.7-0.8-1.5-0.7-2.3c0-1,0.5-2,1.4-2.5c1.3-0.8,2.8-1.1,4.3-1L-183,99.5z M-168.6,101.2l2.4,0.3v1.9h-9.1v-2l2.2-0.3V79.8
			l-2.4-0.4v-1.8l6-0.7l0.9,0.6V101.2z M-125.2,81.4l-2.1,0.4l-6.1,21.5h-4.2l-4.5-15l-4.3,15h-4.1l-6.6-21.5l-2-0.5v-2h9.8v2
			l-2.9,0.4l4,14.4l0.7,3.5l0.8-3.5l3.4-11.7l-0.9-2.7l-2.2-0.4v-2h10.1v2l-2.9,0.4l4,14.4l0.9,3.8l0.7-3.8l3.7-14.4l-2.9-0.4v-2
			h7.8L-125.2,81.4z M-118.1,85c-1.6,0-3.2,0.4-4.5,1.1c-1.3,0.8-2.3,1.9-2.9,3.3c-0.8,1.6-1.1,3.3-1.1,5c-0.1,2.5,0.6,4.9,2.1,6.8
			c1.6,1.8,4,2.7,6.3,2.5c1.4,0,2.7-0.3,4-0.8c1.1-0.4,2.1-1,2.9-1.7l-0.8-1.8c-0.6,0.4-1.4,0.8-2.1,1c-0.8,0.3-1.7,0.4-2.6,0.4
			c-1.4,0.1-2.7-0.5-3.6-1.6c-0.9-1.3-1.4-2.9-1.4-4.5h10.5c0.2-1,0.2-2.1,0.1-3.2c0-1.8-0.7-3.5-1.9-4.7
			C-114.5,85.5-116.3,84.9-118.1,85z M-115.8,92.6h-6.2c-0.1-1.5,0.3-3.1,1-4.4c0.6-0.8,1.5-1.3,2.5-1.3c1.9,0,2.9,1.4,2.9,4.3
			C-115.8,91.7-115.8,92.1-115.8,92.6z M-102.8,101.1l2.4,0.3v1.9h-9.1v-1.8l2.3-0.3V79.8l-2.4-0.4v-1.8l6-0.7l0.9,0.6V101.1z
			 M-91.9,101.1l2.4,0.3v1.9h-9.1v-1.8l2.2-0.3V79.8l-2.4-0.4v-1.8l6-0.7l0.9,0.6L-91.9,101.1z M-60.2,85c-1.6,0-3.2,0.4-4.5,1.1
			c-1.3,0.8-2.3,1.9-2.9,3.3c-0.8,1.6-1.1,3.3-1.1,5c-0.1,2.5,0.6,4.9,2.1,6.8c1.6,1.8,4,2.7,6.3,2.5c1.4,0,2.7-0.3,4-0.8
			c1.1-0.4,2.1-1,2.9-1.7l-0.8-1.8c-0.7,0.4-1.4,0.8-2.1,1c-0.8,0.3-1.7,0.4-2.6,0.4c-1.4,0.1-2.7-0.5-3.6-1.6
			c-0.9-1.3-1.4-2.9-1.4-4.5h10.5c0.2-1,0.3-2.1,0.3-3.2c0-1.8-0.7-3.5-2.1-4.7C-56.6,85.5-58.3,84.9-60.2,85z M-57.9,92.6h-6.2
			c-0.1-1.5,0.3-3.1,1-4.4c0.6-0.8,1.5-1.3,2.4-1.3c1.9,0,2.9,1.4,2.9,4.3C-57.8,91.7-57.9,92.1-57.9,92.6z M-1.1,84.8h-1.1
			c-0.7,0-1.4,0.2-2.1,0.5c-0.5,0.2-1,0.6-1.4,1c-1.7-1.1-3.6-1.6-5.6-1.4c-1.4,0-2.7,0.2-4,0.7c-1.1,0.4-2.2,1.2-2.9,2.1
			c-0.7,0.9-1.1,2.1-1.1,3.2c0,1.2,0.3,2.3,0.9,3.3c0.6,1,1.6,1.7,2.6,2.1c-0.7,0.4-1.4,0.9-1.8,1.5c-0.4,0.6-0.7,1.3-0.7,2.1
			c-0.1,1.1,0.5,2.2,1.5,2.8c-0.9,0.4-1.6,1-2.1,1.8c-0.6,0.7-0.9,1.6-0.9,2.5c-0.1,1.5,0.7,2.9,1.9,3.7c1.9,1.1,4.1,1.5,6.3,1.3
			c1.7,0,3.4-0.3,5-0.9c1.5-0.4,2.9-1.2,4-2.3c0.9-1,1.4-2.2,1.4-3.6c0-3.2-2.2-4.8-6.6-4.8h-3.6c-0.9,0.1-1.9-0.1-2.7-0.4
			c-0.5-0.3-0.8-0.9-0.7-1.4c0-0.3,0.1-0.6,0.2-0.8c0.1-0.3,0.3-0.6,0.5-0.9c0.8,0.2,1.7,0.2,2.5,0.2c2.1,0.2,4.2-0.5,5.9-1.8
			c1.4-1.2,2.1-2.9,2.1-4.7c0-0.8-0.2-1.5-0.5-2.2h3.3L-1.1,84.8z M-14.5,103.4c0.5,0,1,0,1.5,0h3.5c0.9-0.1,1.8,0.1,2.6,0.6
			c0.5,0.5,0.8,1.3,0.7,2c0.1,1.1-0.5,2.2-1.5,2.7c-1,0.7-2.3,1-3.5,1c-1.2,0.1-2.3-0.2-3.2-0.9c-0.7-0.7-1-1.7-1-2.7
			C-15.4,105.1-15.1,104.2-14.5,103.4z M-11.6,95.1c-2.1,0-3.2-1.4-3.2-4.2c-0.1-1,0.2-2.1,0.8-2.9c0.6-0.7,1.4-1,2.3-1
			c0.9-0.1,1.7,0.3,2.3,1c0.5,0.9,0.8,1.9,0.8,2.9C-8.4,93.7-9.4,95.1-11.6,95.1z M-50.1,79.7c0-1.5,1.2-2.7,2.7-2.8
			c1.5,0,2.7,1.2,2.8,2.7c0,1.5-1.2,2.7-2.7,2.8c0,0,0,0,0,0C-48.9,82.4-50.1,81.2-50.1,79.7z M-77.8,85c-1,0-1.9,0.2-2.8,0.6
			c-0.8,0.4-1.5,0.8-2.1,1.4v-9.4l-0.9-0.6l-6,0.7v1.8l2.4,0.4v22.7c0.7,0.4,1.5,0.6,2.4,0.8c1.5,0.3,2.9,0.5,4.4,0.4
			c1.8,0,3.5-0.4,5-1.3c1.4-0.8,2.6-2.1,3.3-3.5c0.8-1.6,1.2-3.3,1.1-5c0.2-2.4-0.5-4.7-1.9-6.7C-74,85.7-75.9,84.9-77.8,85z
			 M-76.9,99.7c-0.7,1.2-1.9,1.9-3.3,1.9c-0.6,0-1.2,0-1.7-0.1c-0.3-0.1-0.6-0.3-0.8-0.5V89.2c0.4-0.4,0.8-0.7,1.3-0.9
			c0.6-0.3,1.2-0.4,1.8-0.4c1.2-0.1,2.3,0.5,2.9,1.5c0.8,1.5,1.2,3.1,1.1,4.8c0.1,2-0.3,3.9-1.2,5.6V99.7z M-44.6,101.1l2.4,0.3v1.9
			h-9.3v-1.8l2.3-0.3V87.9l-2.4-0.4v-1.8l6-0.7l0.9,0.6L-44.6,101.1z M-22.7,101.1l2.3,0.4v1.9h-9.2v-1.9l2.3-0.3v-8.9
			c0-0.9,0-1.8-0.2-2.6c-0.1-0.6-0.4-1.1-0.8-1.4c-0.5-0.3-1.1-0.5-1.7-0.4c-1.5,0.1-2.9,0.6-4,1.6v11.9l2.4,0.3v1.9h-9.2v-2
			l2.3-0.3V87.9l-2.3-0.4v-1.8L-35,85l0.9,0.6v1.6c0.8-0.6,1.6-1.1,2.5-1.5c1.1-0.5,2.4-0.8,3.6-0.8c1,0,2,0.2,2.9,0.7
			c0.8,0.5,1.4,1.3,1.6,2.3c0.4,1.4,0.5,2.8,0.5,4.2L-22.7,101.1z"/>
		<path class="st1" d="M47.2,26.4c-11.7,13.8-2.3,14.4-7,19.9c-3.9,4.5-16.7,5-16.7,5c-2.9,0-0.2-1.6-0.2-1.6
			c5.7-3.9,7.8-8.6,4.5-6.8c-10.7,5.5-12.9,5.5-12.9,5.5c-2.9,0.8-0.6-0.8-0.6-0.8c10.2-6.5,19.7-14.1,28.2-22.7
			c-3.3,0.3-6.7-0.6-9.4-2.6c-0.6-0.4-0.5-1,0.2-0.9c2.1-0.3,3.9-1.3,5.2-2.9c0.5-0.6-0.4-0.5-0.4-0.5c-6.6,2.6-11.7-1.8-15-5
			c-0.8-0.7,0-0.9,0.4-0.8C36.7,12.9,42.3,8,43.1,7.5c0.7-0.4,0.3-0.8-0.4-0.4c-2.1,0.6-4.2,1.1-6.3,1.5c-7.1,1.5-16.9-1.1-19.3-5.3
			c-0.5-0.9,0-1.3,0.5-1.2c5.2,0.8,10.6,0.5,15.7-0.8c0.9-0.2,0.8-1,0-0.8c-14.4,1-21-2.1-24-11.2c-0.3-0.8-0.5-1.9,0.4-1.3
			c3,1.8,6.6,2.5,10.1,1.9c0.6,0,0.6-0.4,0-0.5C5.4-14.4,4.7-30.8,4.6-33.1S5.2-34,5.2-34C9-27.5,17.5-22.7,23.8-19.6
			c1.2,0.6,1.7-0.3,0.4-0.8c-1.8-0.9-3.6-1.9-5.2-2.9C12.8-27,8.7-33.2,7.7-40.3C7.4-44.3,7.8-48.4,9-52.3c0.7-2.3,1.4-2,2-0.3
			c5.9,15.2,22.3,28.1,34.9,33.1S66.7-9.4,67.6-0.8C68.4,7.7,59,12.6,47.2,26.4z M89.1-25.6c0.6,0.1,1.2,0.1,1.7-0.2
			c0.4-0.2,0.8-0.6,1-1c0.3-0.6,0.3-1.3,0.1-1.9c-0.5-1.2-1.8-1.7-3-1.2c-0.1,0-0.1,0-0.2,0.1c-1.2,0.4-1.8,1.6-1.5,2.8
			c0,0,0,0.1,0,0.1C87.6-26.1,88.3-25.6,89.1-25.6z M136.9-1.8c-3.5,3.2-16.5,8-29,4.1s-13.3,0-13.6,0.9c-0.3,0.9-0.7,0.6-0.7,0
			s-0.4-5.7-0.5-7.6c-0.1-1.9,1.4-3.8,2.5-6.6s3.2-10,4.4-11c3.4-2.6,6.6-5.5,9.6-8.6c1.5-1.9,2.8-4,3.7-6.2c-6-1.5-14.1,3.2-15.6,4
			c-5.1-2.2-10.7-2.7-16.1-1.5c-5.4,1.5-9.5,5.8-10.8,11.3c-1.2,5.9-2.9,8.1-5,9.2c-2,1.1-2.7,0-2.1,0.9c1.4,2.3,4.4,3,6.7,1.6
			c0.2-0.1,0.5-0.3,0.7-0.5c6.3-5.9,4.9-10.3,8.8-15.1c3.9-4.8,6.6-4.7,10.5-5c3.8-0.4,5.5,0.7,5.2,1.4c-0.4,1.2-1,2.3-1.7,3.4
			c-0.4,0.6-1,1.1-1.6,1.5c-0.9,0.6-1.9,1-2.9,1.3c-1.6,0.4-3.3,0.8-4.8,1.4c-6.7,3.1-6.7,5.5-6.9,7.1c2.4,0.2,4.7-0.3,6.8-1.5
			c2.7-1.8,2.5-3.1,4-4.5c2.1-1.5,4.3-2.9,6.6-4c3.4-2.1,8.8-4.3,14.7-7.4c-1.8,3.1-12.3,9.8-13.9,10.7c-1.6,0.9-0.3,1.7,1.4,1.3
			c-0.5,0.7-1.5,1.6-1.5,1.6c-1.3,4.1-3,8.1-4.9,12c-0.2,0.4-0.5,0.4-0.3,4.7c0,1.8,0,4.4,0,4.4c0.3,10.5-5.2,16.2-13.9,22.1
			S61,29.8,49.6,43.8c0,0-3.1,4.1,4.6-2.8c3.3-2.7,6.9-5,10.7-7c8.8-4.3,8-0.4,8.6,0.6c0.6,1,2.6-5.9,4.3-3.9
			c1.1,1.9,3.1,3.2,5.3,3.5c0.6,0.1,0.9,0.2,0.7-0.3c-0.4-1.1-0.4-2.4,0-3.5c0.4-1,0.8-1.6,1.3-0.4c1.2,2.7,3.7,4.5,6.7,4.6
			c0.6,0,0.7-0.2,0.4-0.6c-1-1.1-1.8-2.3-2.5-3.6c-0.5-1.3,0-1.6,0.6-0.6c1.7,2.3,6.6,3.6,10.9,3.6c0.7,0,0.9-0.4,0.4-0.8
			c-2.3-1.3-4.5-2.9-6.5-4.7c-0.6-0.6-0.4-1.3,0.2-0.8c4.5,3.4,10.5,4.1,15.7,1.7c1.2-0.5,0.9-0.9-0.2-1.1c-3.5-0.4-7-1.6-10-3.5
			c-0.9-0.6-0.4-1,0.4-0.7c10.9,4.3,15.8,0.9,21.1-5.1c1.1-1.2,0.7-1.6-0.6-1c-2.7,0.4-5.4,0.4-8,0c-1.1,0-1-0.7,0-0.7
			c12.4-0.9,22.9-15.9,24-18.1C138.4-2.3,137.5-2.3,136.9-1.8z"/>
		<path class="st0" d="M-58.8,43.5v7.2c-1.4,0.4-2.8,0.5-4.2,0.5c-5.2,0-7.9-2.7-7.9-8.6V20.6h9.4v20.3
			C-61.4,42.6-60.8,43.5-58.8,43.5z M-66.1,16.7c2.8-0.1,4.9-2.4,4.8-5.2c-0.1-2.8-2.4-4.9-5.2-4.8c-2.7,0.1-4.8,2.3-4.8,5
			c0,2.8,2.3,5,5.1,5C-66.2,16.7-66.2,16.7-66.1,16.7z M-10.6,37.3c0.1,2.9-2.2,5.4-5.1,5.5c-2.1,0-3.6-1.5-3.6-4.8v-8.8
			c0-5.9-2.7-8.6-7.9-8.6h-16.5V11h-9.5v9.5h-4.5v7.6h4.5v9.1c0,9,3.6,14.1,13,14.1c3,0,5.9-1,8.3-2.9l-2.8-6.9
			c-1.3,1-2.8,1.5-4.4,1.5c-3.1,0-4.5-1.9-4.5-6.1v-8.8h12.4c1.9,0,2.5,0.9,2.5,2.6v9.8c0,6.2,2.4,10.9,9.6,10.9
			c3.6,0.4,7.1-1.3,9.1-4.2v4.4c0,3.6-2.9,6.5-6.4,6.6c-0.3,0-0.6,0-0.9-0.1c-2.8,0.1-5.5-1.2-7.3-3.4l-4.9,5.1
			c3,4.5,8.2,7.1,13.6,6.7C-8.3,66.9-1.7,61-1.3,53.3c0-0.6,0-1.1,0-1.7V20.6h-9.3V37.3z M-121.2,33.4c0,4.8-1.6,8.8-7.1,8.8
			c-5.5,0-7.3-4-7.3-8.8V6.8h-10.2v25.9c0,14,8.1,18.6,17.6,18.6c9.5,0,17.4-4.6,17.4-18.6V6.8h-10.3V33.4z M-76.8,40.9v-8.6
			c0-6.6-2.9-12.1-10.8-12.1c-5.5,0-7.9,2.5-8.8,4.8v-0.6c-0.8-2.8-3.6-4.6-6.6-4.2c-1.4,0-2.8,0.1-4.2,0.5v7.4c2,0,2.5,1,2.5,2.5
			v20.5h9.5V33.5c-0.1-2.5,1.9-4.6,4.4-4.7c0.1,0,0.1,0,0.2,0c2.3,0,4.2,2,4.1,4.3c0,0.1,0,0.3,0,0.4v9.2c0,5.9,2.7,8.6,7.9,8.6
			c1.4,0,2.8-0.1,4.2-0.5v-7.3C-76.1,43.5-76.8,42.6-76.8,40.9z M-266.2-42.7L-250,1.4h-10.6l-3.5-10.5h-14.7l-3.5,10.5H-293
			l16.3-44L-266.2-42.7z M-266.6-16.7l-4.9-14.7l-4.9,14.7H-266.6z M-77.1-32.8c2.7-0.1,4.9-2.5,4.7-5.2c-0.1-2.7-2.5-4.9-5.2-4.7
			c-2.7,0.1-4.7,2.3-4.7,5c0,2.8,2.3,5,5.1,5C-77.1-32.8-77.1-32.8-77.1-32.8z M-66.3-13.8c0-11.3,6.2-15.6,12.8-15.6
			c3.1,0,6.1,1.2,8.4,3.3V-29h8.4v20.3c0,1.7,0.6,2.6,2.5,2.6v7.3c-1.4,0.4-2.8,0.5-4.2,0.5c-3.1,0.4-6-1.6-6.7-4.6v-0.3
			c-1.7,3.3-5.2,5.3-9,5C-59.9,1.7-66.3-3-66.3-13.8z M-56.8-13.8c0,5.2,2.9,7.2,5.5,7.2c2.5-0.1,4.6-1.9,5.1-4.4v-5.3
			c-0.3-2.7-2.5-4.7-5.2-4.7c-3.2,0-5.4,2.3-5.4,7.1L-56.8-13.8z M-90.3,1.7c1.4,0,2.8-0.1,4.2-0.5v-7.3c-1.9,0-2.5-0.9-2.5-2.6
			v-34.1h-9.6v35.9C-98.2-1-95.5,1.7-90.3,1.7z M-134.3-13.7c0-11.3,6.2-15.6,12.8-15.6c3.1,0,6.1,1.2,8.4,3.3V-29h8.4v20.3
			c0,1.7,0.6,2.6,2.5,2.6v7.3c-1.4,0.4-2.8,0.5-4.2,0.5c-3.1,0.4-6-1.6-6.7-4.6v-0.3c-1.7,3.3-5.1,5.2-8.8,5
			C-127.9,1.7-134.3-3-134.3-13.7L-134.3-13.7z M-124.9-13.7c0,5.2,2.9,7.2,5.5,7.2c2.6-0.1,4.8-2,5.2-4.6v-5.2
			c-0.3-2.7-2.5-4.7-5.2-4.7c-3.2,0-5.5,2.3-5.5,7.1L-124.9-13.7z M-167.2-6.7c-2.9,0-4.5-1.9-4.5-6.1v-8.8h10V-29h-10v-9.5h-9.5
			v9.5h-4.5v7.5h4.5v9.1c0,9,3.6,14.1,13,14.1c3,0,5.9-1,8.3-2.9l-2.8-6.9C-164.1-7.2-165.6-6.7-167.2-6.7z M-220.8-8.7V-29h-9.5
			v16.6c0.1,3-2.2,5.4-5.2,5.5c-2.1,0-3.5-1.5-3.5-4.8V-29h-9.6v19.8c0,6.2,2.4,10.9,9.6,10.9c4,0.4,7.9-1.6,9.7-5.2V-3
			c0.7,3.1,3.6,5.2,6.8,4.7c1.4,0,2.8-0.1,4.2-0.5v-7.3C-220.2-6.1-220.8-7.1-220.8-8.7z M-1.1-8.7v-8.6c0-6.6-2.9-12.1-10.8-12.1
			c-5.6,0-7.9,2.5-8.8,4.8v-0.6c-0.8-2.8-3.6-4.6-6.6-4.2c-1.4,0-2.8,0.1-4.2,0.5v7.3c2,0,2.5,0.9,2.5,2.5V1.5h9.5v-17.4
			c-0.1-2.5,1.9-4.6,4.4-4.7c0.1,0,0.1,0,0.2,0c2.3,0,4.2,1.9,4.2,4.2c0,0.2,0,0.4,0,0.5v9.1c0,5.9,2.7,8.6,7.9,8.6
			c1.4,0,2.8-0.1,4.2-0.5v-7.4C-0.4-6.1-1.1-7.1-1.1-8.7z M-141.8-20.7c1.5-0.1,3,0.2,4.2,1.1l3.9-8.4c-1.6-1-3.4-1.4-5.2-1.3
			c-5.9,0-7.9,2.8-8.8,5v-0.5c-0.9-2.9-3.7-4.8-6.7-4.5c-1.3-0.1-2.7,0.1-4,0.5v7.2c2,0,2.5,1,2.5,2.6V1.5h9.4v-17.4
			c-0.2-2.5,1.7-4.7,4.2-4.9C-142.1-20.7-142-20.7-141.8-20.7L-141.8-20.7z M-69.7-6.1c-1.9,0-2.5-0.9-2.5-2.6V-29h-9.5v22.1
			c0,5.9,2.7,8.6,7.9,8.6c1.4,0,2.8-0.1,4.2-0.5L-69.7-6.1z M-204.6-20.3c0-1,0.9-1.8,3.8-1.8c2.7,0,5.2,1.1,7.2,2.9l5.4-5.1
			c-1.4-1.8-5.1-5-13.4-5c-9.3,0.2-12.6,5-12.6,9.2c0,11.6,16.1,8.5,16.1,12.6c0,1.3-0.9,2.7-3.6,2.7c-3.4-0.1-6.7-1.7-8.8-4.4
			l-5.3,5.1c1,1.8,2.4,3.2,4.2,4.2c2.5,1.4,5.3,2.2,8.2,2.4c0.7,0,1.3,0,2.1,0c9.5,0,14-3.9,14-10.4c0.1-10.4-17.2-6.9-17.2-12.3
			H-204.6z"/>
	</g>
</g>
</svg>
