<svg xmlns="http://www.w3.org/2000/svg" viewBox="0 0 1504 321">
  <g fill="#2461E5">
    <path d="M538.918 27.74v14.812h-36.386V134h-17.227V42.552H448.92V27.74zM547.663 134V17.275h17.227V66.38c5.26-9.66 13.953-14.49 26.082-14.49 8.909 0 16.18 2.576 21.815 7.728 5.635 5.152 8.453 12.558 8.453 22.218V134h-17.227V87.31c0-14.168-5.742-21.252-17.227-21.252-6.01 0-11.163 2.093-15.456 6.279-4.293 4.186-6.44 10.572-6.44 19.159V134h-17.227Zm161.11-45.08a75.48 75.48 0 0 1-.644 9.982h-58.926c.75 7.406 3.166 13.095 7.245 17.066 4.078 3.971 9.445 5.957 16.1 5.957 9.874 0 16.85-3.864 20.93-11.592l13.685 6.44c-2.791 5.903-7.219 10.519-13.283 13.846-6.064 3.327-13.068 4.991-21.01 4.991-12.236 0-22.057-3.73-29.463-11.19-7.406-7.46-11.11-17.683-11.11-30.67 0-12.88 3.65-23.077 10.949-30.59 7.298-7.513 16.85-11.27 28.658-11.27 11.377 0 20.366 3.462 26.967 10.384 6.601 6.923 9.902 15.805 9.902 26.646ZM685.91 70.888c-3.542-3.542-8.319-5.313-14.33-5.313-6.01 0-10.92 1.717-14.73 5.152-3.811 3.435-6.253 8.426-7.326 14.973h42.343c-.43-6.44-2.415-11.377-5.957-14.812ZM764.8 134V27.74h41.86c12.45 0 21.708 2.522 27.772 7.567 6.065 5.045 9.097 12.236 9.097 21.574 0 5.796-1.664 10.84-4.991 15.134-3.327 4.293-7.996 6.977-14.007 8.05v.161c6.655 1.073 11.94 3.864 15.858 8.372 3.918 4.508 5.877 9.821 5.877 15.939 0 9.23-3.381 16.449-10.143 21.654-6.762 5.206-16.368 7.809-28.82 7.809H764.8Zm16.905-60.536h23.667c13.524 0 20.286-5.206 20.286-15.617 0-10.411-6.762-15.617-20.286-15.617h-23.667v31.234Zm0 46.207h26.404c13.524 0 20.286-5.313 20.286-15.939 0-10.626-6.762-15.939-20.286-15.939h-26.404v31.878Zm103.048 15.939c-8.587 0-15.617-2.388-21.091-7.165-5.474-4.776-8.211-12.048-8.211-21.815V53.5h17.227v48.783c0 6.977 1.475 11.914 4.427 14.812 2.952 2.898 7.38 4.347 13.283 4.347s10.894-2.04 14.973-6.118c4.078-4.079 6.118-10.143 6.118-18.193V53.5h17.227V134h-15.134l-.805-13.041c-5.26 9.767-14.598 14.651-28.014 14.651ZM942.72 134V53.5h14.651l1.61 14.49c4.508-10.733 12.934-16.1 25.277-16.1 3.757 0 6.709.537 8.855 1.61l-2.415 15.134c-2.683-.966-5.957-1.449-9.82-1.449-5.582 0-10.466 2.12-14.652 6.36s-6.279 10.17-6.279 17.79V134H942.72Zm128.012-45.08a75.48 75.48 0 0 1-.644 9.982h-58.926c.751 7.406 3.166 13.095 7.245 17.066 4.079 3.971 9.445 5.957 16.1 5.957 9.875 0 16.851-3.864 20.93-11.592l13.685 6.44c-2.79 5.903-7.218 10.519-13.283 13.846-6.064 3.327-13.067 4.991-21.01 4.991-12.236 0-22.057-3.73-29.463-11.19-7.406-7.46-11.11-17.683-11.11-30.67 0-12.88 3.65-23.077 10.949-30.59 7.299-7.513 16.851-11.27 28.658-11.27 11.377 0 20.366 3.462 26.967 10.384 6.601 6.923 9.902 15.805 9.902 26.646Zm-22.862-18.032c-3.542-3.542-8.318-5.313-14.33-5.313-6.01 0-10.92 1.717-14.73 5.152-3.811 3.435-6.253 8.426-7.326 14.973h42.343c-.43-6.44-2.415-11.377-5.957-14.812Zm104.277 51.52c1.932 0 3.81-.268 5.635-.805l-.966 11.914c-2.791 1.18-5.904 1.771-9.338 1.771-9.66-.215-15.456-4.079-17.388-11.592-2.576 3.864-6.199 6.816-10.868 8.855-4.669 2.04-9.58 3.059-14.731 3.059-7.943 0-14.356-1.905-19.24-5.716-4.884-3.81-7.325-9.203-7.325-16.18 0-5.903 1.958-10.787 5.876-14.651 3.918-3.864 9.472-6.547 16.664-8.05l28.658-5.635v-3.059c0-5.26-1.476-9.392-4.428-12.397-2.952-3.005-7.003-4.508-12.155-4.508-10.412 0-17.066 4.776-19.964 14.329l-14.49-6.118c2.039-6.762 6.09-12.075 12.155-15.939 6.064-3.864 13.712-5.796 22.943-5.796 9.982 0 17.978 2.442 23.989 7.325 6.01 4.884 9.016 11.995 9.016 21.333v35.903c0 3.971 1.985 5.957 5.957 5.957Zm-44.114-.161c6.01 0 11.028-1.503 15.053-4.508s6.038-7.513 6.038-13.524v-6.762l-20.286 4.186c-4.723.966-8.158 2.254-10.304 3.864-2.147 1.61-3.22 3.918-3.22 6.923s1.153 5.394 3.461 7.164c2.308 1.772 5.394 2.657 9.258 2.657Zm85.117 13.363c-8.587 0-15.617-2.388-21.09-7.165-5.475-4.776-8.212-12.048-8.212-21.815V53.5h17.227v48.783c0 6.977 1.476 11.914 4.428 14.812 2.951 2.898 7.379 4.347 13.282 4.347 5.903 0 10.894-2.04 14.973-6.118 4.079-4.079 6.118-10.143 6.118-18.193V53.5h17.227V134h-15.134l-.805-13.041c-5.26 9.767-14.597 14.651-28.014 14.651Zm-729.74 60.55c7.405-7.513 17.065-11.27 28.98-11.27 11.913 0 21.546 3.757 28.899 11.27 7.352 7.513 11.028 17.71 11.028 30.59 0 12.88-3.676 23.077-11.028 30.59-7.353 7.513-16.986 11.27-28.9 11.27-11.914 0-21.574-3.757-28.98-11.27-7.406-7.513-11.109-17.71-11.109-30.59 0-12.88 3.703-23.077 11.11-30.59Zm28.98 2.254c-7.192 0-12.8 2.469-16.825 7.406-4.025 4.937-6.038 11.914-6.038 20.93s2.013 15.993 6.038 20.93c4.025 4.937 9.633 7.406 16.824 7.406 7.084 0 12.639-2.469 16.664-7.406 4.025-4.937 6.037-11.914 6.037-20.93s-2.012-15.993-6.037-20.93c-4.025-4.937-9.58-7.406-16.664-7.406Zm71.525-22.218V186.5h26.082v13.524h-25.6V267h-17.226v-66.976h-15.134V186.5h15.134v-11.592c0-8.157 2.469-14.49 7.406-18.998 4.937-4.508 11.807-6.762 20.608-6.762 7.084 0 12.182 1.288 15.295 3.864l-3.22 12.397c-2.469-1.503-5.528-2.254-9.177-2.254-9.445 0-14.168 4.347-14.168 13.041Zm185.192-15.456V267H733.33v-61.502l1.127-29.302h-.16L701.933 267h-14.329l-32.36-90.804h-.162l1.288 29.302V267h-15.939V160.74h25.6l21.412 61.502 7.406 25.277h.322l7.567-25.277 21.252-61.502zm87.465 61.18a75.48 75.48 0 0 1-.644 9.982h-58.926c.751 7.406 3.166 13.095 7.245 17.066 4.079 3.971 9.445 5.957 16.1 5.957 9.875 0 16.851-3.864 20.93-11.592l13.685 6.44c-2.79 5.903-7.218 10.519-13.283 13.846-6.064 3.327-13.067 4.991-21.01 4.991-12.236 0-22.057-3.73-29.463-11.19-7.406-7.46-11.11-17.683-11.11-30.67 0-12.88 3.65-23.077 10.949-30.59 7.299-7.513 16.851-11.27 28.658-11.27 11.377 0 20.366 3.462 26.967 10.385 6.601 6.923 9.902 15.804 9.902 26.645Zm-22.862-18.032c-3.542-3.542-8.318-5.313-14.33-5.313-6.01 0-10.92 1.717-14.73 5.152-3.81 3.435-6.253 8.426-7.326 14.973h42.343c-.43-6.44-2.415-11.377-5.957-14.812Zm83.415 45.241 3.864 12.558c-5.26 4.615-12.29 6.923-21.091 6.923-7.621 0-13.685-1.852-18.193-5.555-4.508-3.703-6.816-9.472-6.923-17.307v-45.724h-15.456V186.5h15.456v-18.837l17.227-4.83V186.5H899.7v13.524h-27.692v42.826c0 7.62 3.864 11.431 11.592 11.431 5.259 0 9.767-1.717 13.524-5.152Zm81.092-27.209a75.48 75.48 0 0 1-.644 9.982h-58.926c.752 7.406 3.167 13.095 7.245 17.066 4.079 3.971 9.446 5.957 16.1 5.957 9.875 0 16.852-3.864 20.93-11.592l13.685 6.44c-2.79 5.903-7.218 10.519-13.282 13.846-6.065 3.327-13.068 4.991-21.01 4.991-12.237 0-22.058-3.73-29.464-11.19-7.406-7.46-11.109-17.683-11.109-30.67 0-12.88 3.65-23.077 10.948-30.59 7.299-7.513 16.852-11.27 28.658-11.27 11.378 0 20.367 3.462 26.968 10.385 6.6 6.923 9.901 15.804 9.901 26.645Zm-22.862-18.032c-3.542-3.542-8.318-5.313-14.329-5.313-6.01 0-10.921 1.717-14.731 5.152-3.81 3.435-6.252 8.426-7.326 14.973h42.343c-.43-6.44-2.415-11.377-5.957-14.812Zm40.682-7.728c7.406-7.513 17.066-11.27 28.98-11.27 11.914 0 21.547 3.757 28.9 11.27 7.352 7.513 11.028 17.71 11.028 30.59 0 12.88-3.676 23.077-11.029 30.59-7.352 7.513-16.985 11.27-28.9 11.27-11.913 0-21.573-3.757-28.98-11.27-7.405-7.513-11.108-17.71-11.108-30.59 0-12.88 3.703-23.077 11.109-30.59Zm28.98 2.254c-7.191 0-12.8 2.469-16.825 7.406-4.025 4.937-6.037 11.914-6.037 20.93s2.012 15.993 6.037 20.93c4.025 4.937 9.634 7.406 16.825 7.406 7.084 0 12.638-2.469 16.663-7.406 4.025-4.937 6.038-11.914 6.038-20.93s-2.013-15.993-6.038-20.93c-4.025-4.937-9.58-7.406-16.663-7.406ZM1073.808 267v-80.5h14.65l1.61 14.49c4.509-10.733 12.934-16.1 25.278-16.1 3.756 0 6.708.537 8.855 1.61l-2.415 15.134c-2.684-.966-5.957-1.449-9.821-1.449-5.582 0-10.465 2.12-14.651 6.36s-6.28 10.17-6.28 17.79V267h-17.226Zm62.645-70.84c7.406-7.513 17.066-11.27 28.98-11.27 11.914 0 21.547 3.757 28.9 11.27 7.352 7.513 11.028 17.71 11.028 30.59 0 12.88-3.676 23.077-11.028 30.59-7.353 7.513-16.986 11.27-28.9 11.27-11.914 0-21.574-3.757-28.98-11.27-7.406-7.513-11.109-17.71-11.109-30.59 0-12.88 3.703-23.077 11.11-30.59Zm28.98 2.254c-7.191 0-12.8 2.469-16.824 7.406-4.025 4.937-6.038 11.914-6.038 20.93s2.013 15.993 6.038 20.93c4.025 4.937 9.633 7.406 16.824 7.406 7.084 0 12.639-2.469 16.664-7.406 4.025-4.937 6.037-11.914 6.037-20.93s-2.012-15.993-6.037-20.93c-4.025-4.937-9.58-7.406-16.664-7.406Zm65.535-48.139v94.185c0 3.864.697 6.574 2.093 8.13 1.395 1.557 3.703 2.335 6.923 2.335 3.327 0 6.654-.644 9.982-1.932l-1.932 12.88c-3.65 1.825-8.104 2.737-13.363 2.737-7.192 0-12.478-1.825-15.859-5.474-3.38-3.65-5.071-9.392-5.071-17.227v-95.634h17.227Zm29.572 45.885c7.406-7.513 17.066-11.27 28.98-11.27 11.914 0 21.548 3.757 28.9 11.27s11.028 17.71 11.028 30.59c0 12.88-3.676 23.077-11.028 30.59-7.352 7.513-16.986 11.27-28.9 11.27-11.914 0-21.574-3.757-28.98-11.27-7.406-7.513-11.109-17.71-11.109-30.59 0-12.88 3.703-23.077 11.11-30.59Zm28.98 2.254c-7.19 0-12.799 2.469-16.824 7.406-4.025 4.937-6.038 11.914-6.038 20.93s2.013 15.993 6.038 20.93c4.025 4.937 9.633 7.406 16.824 7.406 7.084 0 12.639-2.469 16.664-7.406 4.025-4.937 6.037-11.914 6.037-20.93s-2.012-15.993-6.037-20.93c-4.025-4.937-9.58-7.406-16.664-7.406Zm85.28 103.201c-10.09 0-18.623-2.147-25.6-6.44-6.977-4.293-11.163-10.84-12.558-19.642l16.905-3.542c1.61 11.055 9.23 16.583 22.862 16.583 6.977 0 12.343-2.147 16.1-6.44 3.757-4.293 5.635-10.143 5.635-17.549v-12.88c-5.581 9.767-14.168 14.651-25.76 14.651-10.626 0-19.266-3.65-25.92-10.948-6.656-7.299-9.983-17.227-9.983-29.785 0-12.236 3.542-22.084 10.626-29.543 7.084-7.46 15.456-11.19 25.116-11.19 13.095 0 22.164 5.206 27.21 15.617l.804-14.007h15.295v74.06c0 27.37-13.578 41.055-40.733 41.055Zm1.287-49.266c6.87 0 12.263-2.308 16.18-6.923 3.918-4.615 5.877-11.216 5.877-19.803 0-8.587-1.959-15.188-5.876-19.803-3.918-4.615-9.312-6.923-16.18-6.923-6.87 0-12.29 2.469-16.262 7.406-3.971 4.937-5.957 11.377-5.957 19.32 0 8.372 1.959 14.92 5.877 19.642 3.917 4.723 9.364 7.084 16.341 7.084Zm126.978-65.849-35.26 89.999c-3.541 9.23-7.54 15.724-11.994 19.481-4.454 3.757-10.277 5.635-17.468 5.635-7.728 0-14.168-1.878-19.32-5.635l4.186-13.363c3.864 3.435 8.533 5.152 14.007 5.152 6.44 0 11.109-3.864 14.007-11.592l3.542-8.694-8.533-19.964-25.116-61.019h19.32l17.87 50.554 4.67 15.134 5.313-16.583 16.905-49.105h17.87ZM243.722.733c-1.55.7-3.023 2.123-4.097 3.947-1.2 2.024-3.049 7.32-3.723 10.694-.65 3.148-.775 4.921-1.05 16.214-.424 16.665-1.648 25.01-3.847 26.384-1.324.85-3.173.55-6.071-.925-2.324-1.174-11.918-6.67-15.266-8.744-.85-.55-1.848-1.15-2.173-1.35-7.32-4.472-13.117-8.769-13.117-9.693 0-.225 1.224-2.049 2.698-4.048 5.872-7.895 6.97-9.843 7.22-12.742.35-4.172-1.948-7.57-6.045-8.944-2.999-1-9.245-1.799-13.992-1.799-3.672 0-6.745-1-9.494-3.048-3.173-2.398-5.646-3.198-8.22-2.698-2.973.574-5.046 2.373-6.645 5.821-1.15 2.449-1.3 2.548-3.798 2.798-8.82.9-11.718 1.924-15.14 5.447-1.2 1.25-2.05 2.398-2.549 3.448-1.199 2.573-1.399 3.597-2.398 11.767-.175 1.374-.325 1.424-1.924.6-1.699-.924-8.245-3.748-10.543-4.547-1.75-.625-2.349-.725-4.747-.725-2.449.025-3.024.1-5.247.85-3.323 1.099-6.296 2.623-8.82 4.497-2.948 2.198-4.397 3.698-7.47 7.795-2.248 2.998-2.998 3.798-4.572 4.897-1.799 1.25-2.698 2.099-3.473 3.273-.524.75-.824.8-1.924.425-1.424-.525-2.973-.45-4.147.15-1.474.749-4.647 4.072-6.046 6.295-1.724 2.774-2.449 4.997-2.624 8.17-.174 2.874-.35 3.348-2.048 5.522-2.674 3.373-4.947 5.272-8.245 6.846-1.824.849-4.372 1.499-8.345 2.098-11.068 1.7-17.389 3.923-24.984 8.795-4.622 2.948-12.467 8.344-13.492 9.244-.824.724-1.748.85-2.298.25-1.474-1.574-4.472-1.65-6.346-.15-.85.674-2.424 2.923-3.148 4.522-.325.7-1.3 4.547-2.199 8.495-3.572 16.04-3.847 19.987-1.998 29.706.724 3.872 1.524 6.296 3.597 10.943 3.023 6.796 7.645 20.387 9.294 27.283 2.024 8.42 2.999 11.967 3.998 14.566 1.699 4.397 2.223 6.32 2.373 8.42.2 2.548-.35 4.047-2.423 6.87-1.849 2.498-2.723 4.372-2.973 6.471-.4 3.098.5 5.796 2.573 7.845 2.049 1.999 7.795 4.447 13.442 5.721 2.273.5 3.223.575 7.72.55 4.472 0 5.371-.075 7.07-.55 4.298-1.199 13.467-5.146 16.79-7.27 1.274-.824 3.822-1.849 5.946-2.423 2.349-.65 6.271-.875 10.244-.6 6.146.45 10.893-.325 15.09-2.449 2.923-1.449 4.572-2.748 6.071-4.846.75-1 1.9-2.324 2.599-2.949 3.348-2.973 3.922-3.647 5.221-6.12 1-1.875 1.474-2.524 1.874-2.574.325-.05 1.274.3 2.174.8.874.474 2.173 1.049 2.898 1.249 2.523.75 5.996.374 7.72-.85 1.124-.8 3.548-1.449 6.371-1.724 1.524-.125 3.923-.475 5.372-.75 8.394-1.598 13.616-2.148 18.488-1.898 9.57.45 16.59 3.872 22.061 10.743 2.174 2.748 4.397 5.647 4.797 6.346.15.225.5.775.825 1.2.824 1.174 1.449 2.673 2.048 5.046.975 3.873 2.624 6.196 5.372 7.545 1.324.65 1.974.8 3.798.9 2.548.125 4.472-.3 7.745-1.774 2.823-1.274 3.223-1.2 4.322.85 2.399 4.497 4.022 6.345 6.72 7.67 1.075.524 1.85.7 3.748.8l2.399.149.3 2.873c.424 4.023 1.924 8.895 3.373 11.043.25.35.45.725.45.825 0 .325 2.123 3.298 3.322 4.622a31.462 31.462 0 0 0 9.42 7.145c1.473.725 8.044 2.699 17.338 5.247 4.148 1.124 8.295.65 11.193-1.3 1.9-1.298 3.498-2.098 4.473-2.248 1.424-.225 3.522.725 5.546 2.549 4.572 4.097 9.294 4.722 13.641 1.798 1.85-1.249 3.074-2.548 5.047-5.471 1.5-2.249 2.798-3.473 4.323-4.097.5-.225 2.548-.55 4.597-.75 4.272-.4 6.37-.974 8.47-2.349 3.397-2.198 5.546-6.47 6.72-13.366.675-4.023 1.4-7.47 1.849-8.77 1.15-3.298 9.044-20.562 15.165-33.229 5.547-11.392 7.17-15.865 8.695-23.785 1.2-6.22 1.574-17.564.774-22.935-.774-5.222-.949-7.57-.85-11.243.1-3.273.226-4.073.9-6.371.875-2.898.975-4.272.425-6.096-.724-2.399-2.124-3.973-4.497-5.072-1.3-.6-1.824-.7-3.948-.725-1.324 0-2.473-.075-2.498-.125-.05-.05-.525-.824-1.05-1.724-1.199-2.023-3.572-4.547-5.321-5.67-1.699-1.1-2.498-2.25-3.798-5.373-2.073-5.121-2.573-5.996-4.472-8.02-2.273-2.423-4.997-3.747-7.395-3.622l-1.5.075-1.998-5.872c-2.099-6.146-2.823-7.745-4.347-9.519-2.624-3.098-4.897-4.822-11.018-8.244-3.248-1.824-5.672-4.023-6.821-6.172-.65-1.199-1.899-4.647-5.197-14.29-.674-2-1.524-4.972-1.849-6.621-1.549-7.32-2.973-10.594-6.12-13.967-2.1-2.248-4.098-3.148-7.146-3.148h-1.774l-.15-1.823c-.25-2.749-1.024-5.372-2.773-9.395-.875-1.998-2.299-5.72-3.123-8.244-.85-2.524-1.924-5.447-2.399-6.471-.474-1.025-.874-1.974-.874-2.099 0-.674-1.574-2.423-2.499-2.798-1.374-.55-4.322-.5-5.621.1Zm-73.329 15.365c4.472 2.723 7.645 3.548 14.866 3.898 2.898.125 5.821.324 6.496.424 1.124.175 1.249.25 1.174.775-.025.325-.3.874-.625 1.25-.3.374-.774.998-1.049 1.373-.725 1-2.973 3.998-3.123 4.148-.525.524-2.399 3.522-3.023 4.822-2.349 5.046-1.124 9.369 3.922 13.766 1.85 1.624 6.921 5.397 7.246 5.397.075 0 .774.424 1.549.949 1.699 1.15 8.27 5.272 9.619 6.021.5.275 1.299.75 1.749 1 10.818 6.32 12.042 6.97 14.915 7.895 1.85.624 2.524.7 5.122.7 3.248 0 4.747-.376 7.07-1.725 4.073-2.398 5.972-6.121 7.271-14.24.85-5.248 1.524-15.466 1.524-23.086 0-5.147.375-10.794.775-11.543.324-.6.724-.35.724.425 0 .65 1.2 3.772 2.274 5.896 1.374 2.748 1.749 4.197 1.973 7.67.275 4.123.7 5.672 2.074 7.346 1.849 2.323 4.697 3.297 8.095 2.773 1.999-.3 2.249-.15 3.273 2.123.774 1.65 1.024 2.574 2.299 8.17 1.049 4.597 6.545 20.188 7.92 22.536 2.348 3.948 5.471 6.87 10.018 9.47 1.574.874 2.898 1.598 2.948 1.598.35 0 3.648 2.374 4.647 3.348 1.425 1.374 2.2 2.823 3.173 6.046 2.1 7.02 4.248 11.818 6.396 14.416 2.824 3.423 4.473 3.973 8.295 2.798.45-.15.575-.05.725.525.325 1.324 2.773 6.271 3.797 7.645.55.75 2.099 2.249 3.398 3.298 2.024 1.624 3.898 3.673 3.898 4.272 0 .075.45.725.974 1.45 2.149 2.898 3.998 4.047 6.846 4.372 1.774.2 1.699-.075 1.05 3.423-.55 2.873-.376 9.694.374 15.365.275 2.124.5 5.272.5 6.996 0 7.07-.825 9.644-5.047 15.79-1.4 2.023-5.497 5.896-8.32 7.82-5.996 4.097-11.967 6.07-24.36 7.995-6.046.924-7.12 1.124-9.868 1.649-8.07 1.599-18.514 5.296-24.36 8.594-5.147 2.923-11.818 8.145-14.866 11.693-5.296 6.146-8.344 12.142-10.668 21.012-.725 2.798-.8 3.348-.8 7.27-.024 3.273.075 4.672.425 6.096.25 1 .375 1.899.3 1.974-.275.275-2.448-2.099-3.723-4.072-2.273-3.498-2.748-4.997-3.273-10.194-.424-3.973-.924-5.721-2.123-7.395-1.75-2.399-4.248-3.423-7.77-3.198-2.524.15-2.474.175-3.648-2.199-3.198-6.396-.85-14.716 6.52-23.36 1.725-1.999 4.473-4.597 6.647-6.271.6-.45 1.249-.975 1.424-1.125.4-.4 5.996-4.097 6.146-4.097.075 0 .95-.475 1.974-1.05 2.073-1.174 6.42-3.072 9.194-4.022 1.024-.35 4.622-1.374 7.995-2.298 16.24-4.398 22.46-7.37 29.007-13.867 9.743-9.694 13.641-23.96 11.193-40.849-1.45-10.019-5.597-20.987-11.068-29.182-2.849-4.272-3.448-5.021-7.021-8.544-5.946-5.872-14.316-10.169-24.235-12.467-7.97-1.85-18.613-3.373-30.356-4.398-1.574-.15-4.747-.424-7.07-.624-8.345-.725-16.265-.925-26.534-.65-5.346.15-15.365.4-22.236.525-6.87.15-14.016.375-15.865.525-4.397.35-11.018.35-13.866-.025-6.92-.85-11.967-3.024-13.366-5.747-1-1.949-.475-5.321 1.099-7.145.95-1.1 2.923-2.174 6.87-3.723 3.498-1.35 5.972-2.673 8.195-4.347 3.024-2.274 3.723-3.298 6.546-9.67.9-2.023 1.1-3.047 1.774-8.444.65-5.222.775-5.621 2.099-6.846 1.349-1.249 2.698-1.673 6.646-2.048 7.27-.725 10.318-2.199 12.592-6.096.524-.9 1.024-1.65 1.1-1.65.049 0 .749.4 1.548.875Zm-48.045 23.71c4.198 1.7 7.07 3.148 7.07 3.523 0 .2-.374.45-.799.6-1.998.6-4.547 1.649-7.345 3.023-2.498 1.199-3.373 1.799-5.047 3.348-1.624 1.574-2.173 2.273-2.998 3.972-1.499 3.123-1.899 4.797-1.899 8.42-.025 3.822.5 5.771 2.299 8.52 1.799 2.773 3.847 4.472 7.42 6.196 7.17 3.497 15.09 4.497 28.982 3.672 7.745-.45 33.929-1 47.345-1 6.521 0 10.444.126 13.741.426 2.549.224 5.922.524 7.496.674 20.237 1.774 33.778 4.397 40.849 7.92 6.67 3.323 12.142 8.695 16.34 16.04 8.644 15.116 10.768 33.479 5.246 45.621-4.247 9.37-11.342 14.566-25.284 18.464-1.674.474-5.321 1.474-8.07 2.248-8.47 2.374-13.466 4.447-19.712 8.22-4.048 2.449-6.346 4.147-10.718 7.97-8.245 7.22-13.967 16.615-15.116 24.934-.125 1-.325 1.9-.45 2.024-.1.1-.999.375-1.998.575-.975.2-2.874.85-4.198 1.424-1.524.674-2.473.974-2.623.824-.15-.15-.475-1.099-.725-2.123-.924-3.423-2.223-5.822-5.621-10.344-1.224-1.649-2.399-3.148-2.573-3.323-.175-.175-.325-.424-.325-.55 0-.1-1.974-2.323-4.397-4.896-6.147-6.596-8.17-9.57-8.195-12.018-.025-1.174.075-1.399.924-2.273.525-.55 2.049-1.55 3.373-2.249 3.823-1.974 6.896-3.023 23.885-8.045 15.215-4.497 21.237-6.995 27.807-11.543 2.474-1.723 5.997-4.622 7.046-5.796.35-.4 1.2-1.349 1.874-2.099 5.247-5.896 7.97-14.865 7.57-24.884-.6-14.366-7.945-25.784-19.088-29.656-1.849-.625-5.821-1.374-10.443-1.949-13.792-1.724-20.762-.45-35.603 6.47-2.398 1.125-5.596 2.624-7.12 3.299-9.694 4.372-16.915 6.32-25.934 6.97-8.22.6-17.164-.75-27.208-4.122-5.022-1.674-7.52-2.723-15.94-6.77-8.445-4.048-11.343-5.322-15.465-6.721-5.522-1.9-7.795-2.274-13.767-2.274-5.596 0-7.845.25-12.742 1.424-12.492 3.023-25.209 9.844-33.703 18.064a57.388 57.388 0 0 0-13.342 19.737c-.625 1.5-1.2 3.173-1.3 3.673-.099.525-.274.95-.399.95-.525 0-.8-1.55-.924-4.997-.125-4.073.35-7.596 2.223-16.115 1.075-4.997 1.2-5.197 3.098-5.447 1.75-.25 3.398-1.15 7.62-4.197 6.447-4.672 14.017-9.644 17.015-11.193 4.647-2.424 9.794-3.898 17.264-5.022 4.197-.625 7.345-1.374 9.544-2.299 5.696-2.348 10.618-6.47 14.366-12.092 2.074-3.073 2.773-4.997 2.773-7.57 0-2.049.3-3.673.725-4.098.2-.2.55-.025 1.224.625 1.124 1.124 1.949 1.449 3.573 1.449 1.374 0 2.773-.6 3.622-1.549.675-.725 1.65-2.673 2.224-4.447.924-2.848 1.424-3.498 4.372-5.497 1.95-1.324 2.274-1.699 4.298-4.622 2.348-3.423 3.572-4.872 5.521-6.446 2.648-2.198 6.77-4.122 8.845-4.148.45-.024 2.023.476 3.497 1.075Zm-43.922 63.285c4.247.75 9.144 2.724 20.887 8.395 7.52 3.623 10.768 4.972 16.24 6.746 13.716 4.497 26.683 5.571 39.1 3.273 7.92-1.474 13.891-3.498 23.235-7.845 11.593-5.422 15.19-6.821 20.263-7.92 5.321-1.15 18.363-.125 23.41 1.824 6.046 2.348 10.318 8.67 11.568 17.089.45 3.223.15 9.269-.625 12.242-.725 2.823-1.174 3.948-2.224 5.622-2.273 3.672-5.271 6.595-10.043 9.743-5.822 3.848-10.419 5.622-27.483 10.619-14.716 4.322-21.087 6.695-25.06 9.319-2.123 1.424-4.996 4.422-5.72 5.946-.875 1.849-1.325 4.023-1.325 6.346v2.174l-.674-.15c-3.248-.7-10.469-.9-15.815-.4-2.874.25-10.244 1.424-12.917 1.999-.6.15-2.374.35-3.948.5-3.173.25-5.846.899-8.17 1.998l-1.524.725-1.724-.875c-.949-.474-2.423-1.049-3.273-1.274-1.998-.5-5.146-.325-6.695.35-2.124.974-5.022 4.097-7.046 7.595-.35.625-1.074 1.474-1.599 1.849-1.124.85-2.748 2.523-4.972 5.147-1.274 1.499-1.949 2.048-3.073 2.573-2.723 1.224-4.522 1.424-10.768 1.274-7.12-.175-8.02-.275-9.044-.95-1.05-.724-1.65-1.823-3.098-5.546-2.124-5.446-3.773-8.244-6.421-10.893-3.348-3.373-6.696-5.022-14.291-7.095-4.597-1.274-11.168-3.773-13.617-5.172-4.672-2.723-7.52-5.422-9.194-8.645-1.4-2.723-3.223-8.494-3.548-11.193-1.024-8.969 1.324-19.887 6.046-28.082 1.674-2.923 1.624-2.823 3.548-5.496 3.048-4.198 8.295-9.02 13.017-11.968.974-.6 2.149-1.349 2.648-1.674 1.724-1.074 7.02-3.623 9.794-4.697 9.37-3.673 17.04-4.772 24.135-3.473Zm-49.369 85.172c.7.374 2.673 1.224 4.372 1.899 2.724 1.074 4.722 1.723 13.417 4.322 2.873.874 4.922 2.173 6.496 4.122 1.549 1.899 1.999 2.773 3.248 6.121.5 1.374 1.299 3.323 1.774 4.348.474 1.024.85 1.998.85 2.173 0 .175-1.275.975-2.824 1.8-7.07 3.772-13.642 6.045-17.49 6.045-3.197 0-8.419-1.224-12.216-2.848-.975-.425-1.275-1.174-.625-1.574.525-.35 1.824-2.124 2.748-3.823 2.998-5.471 2.724-12.367-.824-20.986-.425-1-.75-1.924-.75-2.024 0-.375.45-.25 1.824.425Zm295.489 3.622c0 .15-.95 2.15-2.099 4.448a344.633 344.633 0 0 0-3.972 8.144 1551.795 1551.795 0 0 1-3.048 6.496c-2.748 5.772-7.396 16.465-8.245 18.914-.65 1.848-1.699 6.495-2.124 9.444-.4 2.673-1.199 5.746-1.774 6.645-.65 1.075-2.073 1.6-4.297 1.6-3.223 0-7.195.924-9.544 2.248-2.748 1.524-4.372 3.123-7.07 6.946-1 1.399-1.974 2.548-2.15 2.548-.174 0-1.098-.625-2.023-1.374-3.647-2.998-6.32-4.148-10.143-4.322-3.898-.175-6.122.424-9.97 2.698-2.323 1.374-3.047 1.499-5.046.874-1.799-.524-3.223-1.474-4.872-3.198-4.472-4.647-5.946-10.618-4.247-17.064 2.648-10.069 6.42-15.79 14.666-22.236 4.971-3.897 9.269-6.071 17.389-8.844 5.821-1.974 9.044-2.699 18.963-4.248 8.994-1.424 15.065-2.823 19.113-4.422 3.123-1.224 9.119-4.447 9.768-5.222.35-.424.725-.45.725-.075Z"/>
    <path d="M82.398 130.401c-7.845 1.25-14.04 7.52-15.79 16.04-.624 3.048-.524 7.595.225 10.568 1.1 4.373 2.799 7.296 6.346 10.943 4.323 4.448 9.394 8.095 15.39 11.044 3.798 1.873 5.997 2.423 9.744 2.448 4.897.05 7.796-.8 15.366-4.472 4.472-2.149 6.62-3.023 12.817-5.097 11.168-3.748 15.815-6.071 19.088-9.594 1.724-1.824 3.398-4.897 3.947-7.17.475-2.05.475-5.222 0-7.046-1-3.823-3.797-7.195-7.395-8.92-2.698-1.274-4.672-1.673-9.47-1.848-19.862-.825-21.835-1.075-33.203-4.173-9.47-2.598-13.642-3.273-17.065-2.723Zm6.721 10.593a185.29 185.29 0 0 1 6.946 1.774c12.342 3.398 14.59 3.698 34.478 4.622 2.898.125 5.672.375 6.196.5 1.924.55 3.448 2.623 3.048 4.197-1.024 4.123-4.122 5.972-17.738 10.544-5.872 1.974-8.17 2.873-12.118 4.797-5.621 2.748-7.97 3.623-10.418 3.847-2.249.2-3.823-.15-6.696-1.599-6.746-3.347-13.267-8.869-15.24-12.866-1.2-2.474-1.574-4.822-1.15-7.346.525-3.273 2.024-6.021 3.998-7.37 2.623-1.824 4.397-2.049 8.694-1.1Zm202.623 139.912c-1.275.525-2.774 1.574-4.298 2.974-.274.25-.974.749-1.549 1.099l-1.074.624-2.299-.4c-1.249-.224-3.272-.4-4.497-.4-2.173 0-2.198 0-4.997-1.473-3.947-2.049-5.096-2.399-7.945-2.374-2.073 0-2.523.075-3.622.65-4.372 2.298-5.322 7.62-2.499 13.816.475 1.025 1.2 2.374 1.624 2.973l.8 1.1-.3 1.948c-.6 3.923.375 7.77 2.848 11.343.425.6.825 1.25.9 1.4.35.824 2.923 3.397 4.422 4.422 4.847 3.273 10.019 2.273 13.242-2.599.524-.8.824-.974 2.248-1.324 3.223-.824 4.547-1.949 5.697-4.872a26.06 26.06 0 0 1 1.723-3.298c.6-.9 1.35-2.123 1.65-2.698.799-1.599 1.299-4.347 1.124-6.171-.175-1.424.05-2.399.6-2.848.374-.3 2.048-2.799 2.698-4.048.65-1.2.7-1.549.7-3.972 0-2.499-.05-2.699-.75-3.873-1.424-2.298-3.898-3.073-6.446-1.999Zm-19.288 13.442c1.05.35 2.573.575 5.122.724 3.847.225 6.72.6 7.095.975.125.125.175.9.1 1.724-.1 1.299-.275 1.749-1.124 2.973-.55.774-1.3 2.024-1.674 2.723-.475.975-.825 1.35-1.35 1.474-1.498.35-3.622 1.724-4.946 3.198l-1.374 1.524-.7-.824c-1-1.15-2.523-4.223-2.523-5.022 0-.35.225-1.374.5-2.224.274-.874.5-2.023.5-2.523 0-1.274-.576-3.123-1.35-4.297-.775-1.15-.8-1.325-.2-1.1.225.075 1.1.4 1.924.675Z"/>
  </g>
</svg>
