<?xml version="1.0" encoding="utf-8"?>
<!-- Generator: Adobe Illustrator 30.2.1, SVG Export Plug-In . SVG Version: 9.03 Build 0)  -->
<!DOCTYPE svg PUBLIC "-//W3C//DTD SVG 1.0//EN" "http://www.w3.org/TR/2001/REC-SVG-20010904/DTD/svg10.dtd" [
	<!ENTITY ns_extend "http://ns.adobe.com/Extensibility/1.0/">
	<!ENTITY ns_ai "http://ns.adobe.com/AdobeIllustrator/10.0/">
	<!ENTITY ns_graphs "http://ns.adobe.com/Graphs/1.0/">
	<!ENTITY ns_vars "http://ns.adobe.com/Variables/1.0/">
	<!ENTITY ns_imrep "http://ns.adobe.com/ImageReplacement/1.0/">
	<!ENTITY ns_sfw "http://ns.adobe.com/SaveForWeb/1.0/">
	<!ENTITY ns_custom "http://ns.adobe.com/GenericCustomNamespace/1.0/">
	<!ENTITY ns_adobe_xpath "http://ns.adobe.com/XPath/1.0/">
]>
<svg version="1.0" id="Layer_1" xmlns:x="&ns_extend;" xmlns:i="&ns_ai;" xmlns:graph="&ns_graphs;"
	 xmlns="http://www.w3.org/2000/svg" xmlns:xlink="http://www.w3.org/1999/xlink" x="0px" y="0px" viewBox="0 0 2564.73 969.4"
	 style="enable-background:new 0 0 2564.73 969.4;" xml:space="preserve">
<style type="text/css">
	.st0{fill:#FFFFFF;}
</style>

	
	<g i:extraneous="self">
		<g>
			<path class="st0" d="M1287.96,670.14H1153.5c-2.76,0-5-2.24-5-5V5.06c0-2.76,2.24-5,5-5h134.45c2.76,0,5,2.24,5,5v660.08
				C1292.96,667.9,1290.72,670.14,1287.96,670.14z"/>
			<circle class="st0" cx="106.1" cy="257.05" r="106.1"/>
			<g>
				<path class="st0" d="M1624.38,675.53c-159.81,14.25-293.15-119.07-278.91-278.88c10.92-122.51,109.56-221.16,232.07-232.09
					c159.81-14.25,293.15,119.08,278.91,278.89C1845.53,565.96,1746.89,664.6,1624.38,675.53z M1612.42,308.56
					c-70.78-7.06-130.01,52.18-122.95,122.96c5.23,52.4,47.61,94.78,100.01,100.02c70.8,7.08,130.07-52.19,122.98-122.98
					C1707.2,356.16,1664.82,313.78,1612.42,308.56z"/>
			</g>
			<path class="st0" d="M2163.69,163.54v0.09c-7.15,0.05-14.34,0.29-21.61,0.94c-122.51,10.92-221.15,109.58-232.07,232.08
				c-0.64,7.14-0.88,14.21-0.93,21.24h-0.11v247.58c0,2.76,2.24,5,5,5h134.45c2.76,0,5-2.24,5-5V417.89l0.05-0.05
				c1.17-60.18,49.98-108.88,110.21-109.84l0.01-0.01h44.97c2.76,0,5-2.24,5-5V168.54c0-2.76-2.24-5-5-5H2163.69z"/>
			<path class="st0" d="M514.73,168.74h-95.07c-1.33,0-2.6,0.53-3.54,1.46L19.47,566.86c-0.94,0.94-1.46,2.21-1.46,3.54v95.07
				c0,2.76,2.24,5,5,5h95.07c1.33,0,2.6-0.53,3.54-1.46l143.72-143.72c1.95-1.95,5.12-1.95,7.07,0l143.72,143.72
				c0.94,0.94,2.21,1.46,3.54,1.46h95.07c2.76,0,5-2.24,5-5V570.4c0-1.33-0.53-2.6-1.46-3.54L374.54,423.14
				c-1.95-1.95-1.95-5.12,0-7.07l143.72-143.72c0.94-0.94,1.46-2.21,1.46-3.54v-95.07C519.73,170.98,517.49,168.74,514.73,168.74z"
				/>
			<path class="st0" d="M952.63,189.37c-40.4-19.7-86.67-29.16-135.45-24.81c-122.51,10.92-221.15,109.58-232.07,232.09
				c-0.69,7.78-0.94,15.48-0.94,23.13h-0.1v414.55c0,2.76,2.24,5,5,5h134.45c2.76,0,5-2.24,5-5V650.7V419.78h0.04
				c0.16-65.45,56.67-117.89,123.49-111.22c52.4,5.23,94.79,47.6,100.03,99.99c0.38,3.84,0.54,7.63,0.54,11.39
				c0,1.96-0.2,3.86-0.3,5.8c-0.12,2.41-0.22,4.83-0.5,7.19c-0.1,0.85-0.28,1.68-0.39,2.52c-5.48,39.29-31.32,72.13-66.56,87.37
				c-0.02,0.01-0.05,0.02-0.07,0.03c-3.2,1.38-6.48,2.61-9.82,3.69c-0.11,0.04-0.22,0.07-0.33,0.11c-3.28,1.05-6.63,1.95-10.03,2.7
				c-0.18,0.04-0.37,0.08-0.55,0.12c-3.35,0.72-6.77,1.29-10.22,1.7c-0.24,0.03-0.49,0.05-0.73,0.08
				c-3.42,0.38-6.89,0.61-10.39,0.68c-2.51,0.05-5,0.16-7.55,0.04h-37.78c-2.76,0-5,2.24-5,5v134.45c0,2.76,2.24,5,5,5h35.46
				c10.26,0.31,20.66,0.05,31.18-0.89c122.5-10.92,221.15-109.57,232.07-232.07c0.64-7.19,0.88-14.31,0.94-21.39
				C1097.8,319.93,1038.64,231.32,952.63,189.37z"/>
		</g>
		<g>
			<path class="st0" d="M973.52,808.89v31.01h-42.11v127.91H892.7V839.9H850.6v-31.01H973.52z"/>
			<path class="st0" d="M1031.7,839.9v32.14h51.84v29.89h-51.84v34.86h58.63v31.01h-97.34V808.89h97.34v31.01H1031.7z"/>
			<path class="st0" d="M1119.08,846.13c6.79-12.3,16.26-21.88,28.41-28.75c12.15-6.86,25.92-10.3,41.32-10.3
				c18.86,0,35.01,4.98,48.45,14.94c13.43,9.96,22.41,23.54,26.94,40.75h-42.56c-3.17-6.64-7.66-11.7-13.47-15.17
				c-5.81-3.47-12.41-5.21-19.81-5.21c-11.92,0-21.58,4.15-28.98,12.45c-7.4,8.3-11.09,19.39-11.09,33.27
				c0,13.89,3.7,24.98,11.09,33.28c7.39,8.3,17.05,12.45,28.98,12.45c7.39,0,14-1.73,19.81-5.21c5.81-3.47,10.3-8.52,13.47-15.17
				h42.56c-4.53,17.2-13.51,30.75-26.94,40.64c-13.43,9.88-29.58,14.82-48.45,14.82c-15.39,0-29.17-3.43-41.32-10.3
				c-12.15-6.87-21.62-16.41-28.41-28.64c-6.79-12.23-10.19-26.19-10.19-41.88S1112.29,858.43,1119.08,846.13z"/>
			<path class="st0" d="M1425.6,808.89v158.92h-38.71v-65.42h-60.22v65.42h-38.71V808.89h38.71v62.25h60.22v-62.25H1425.6z"/>
			<path class="st0" d="M1595.6,967.81h-38.71l-64.75-98.02v98.02h-38.71V808.89h38.71l64.75,98.47v-98.47h38.71V967.81z"/>
			<path class="st0" d="M1657.75,958.98c-12.45-6.94-22.34-16.64-29.65-29.09c-7.32-12.45-10.98-26.44-10.98-41.99
				c0-15.54,3.66-29.5,10.98-41.88c7.32-12.37,17.2-22.03,29.65-28.97c12.45-6.94,26.15-10.41,41.09-10.41s28.64,3.47,41.09,10.41
				c12.45,6.94,22.26,16.6,29.43,28.97c7.17,12.38,10.75,26.34,10.75,41.88c0,15.55-3.62,29.55-10.87,41.99
				c-7.24,12.45-17.05,22.15-29.43,29.09c-12.38,6.94-26.03,10.41-40.97,10.41S1670.2,965.93,1657.75,958.98z M1729.28,921.4
				c7.62-8.45,11.43-19.62,11.43-33.51c0-14.03-3.81-25.24-11.43-33.62c-7.62-8.38-17.77-12.56-30.45-12.56
				c-12.83,0-23.05,4.15-30.67,12.45c-7.62,8.3-11.43,19.55-11.43,33.73c0,14.04,3.81,25.24,11.43,33.62
				c7.62,8.37,17.84,12.56,30.67,12.56C1711.51,934.08,1721.66,929.85,1729.28,921.4z"/>
			<path class="st0" d="M1840.32,937.93h50.71v29.88h-89.42V808.89h38.71V937.93z"/>
			<path class="st0" d="M1943.66,958.98c-12.45-6.94-22.34-16.64-29.65-29.09c-7.32-12.45-10.98-26.44-10.98-41.99
				c0-15.54,3.66-29.5,10.98-41.88c7.32-12.37,17.2-22.03,29.65-28.97c12.45-6.94,26.15-10.41,41.09-10.41
				c14.94,0,28.64,3.47,41.09,10.41c12.45,6.94,22.26,16.6,29.43,28.97c7.17,12.38,10.75,26.34,10.75,41.88
				c0,15.55-3.62,29.55-10.87,41.99c-7.24,12.45-17.05,22.15-29.43,29.09c-12.38,6.94-26.03,10.41-40.97,10.41
				C1969.81,969.4,1956.11,965.93,1943.66,958.98z M2015.19,921.4c7.62-8.45,11.43-19.62,11.43-33.51
				c0-14.03-3.81-25.24-11.43-33.62c-7.62-8.38-17.77-12.56-30.45-12.56c-12.83,0-23.05,4.15-30.67,12.45
				c-7.62,8.3-11.43,19.55-11.43,33.73c0,14.04,3.81,25.24,11.43,33.62c7.62,8.37,17.84,12.56,30.67,12.56
				C1997.43,934.08,2007.57,929.85,2015.19,921.4z"/>
			<path class="st0" d="M2193.02,859.14c-2.87-5.28-6.98-9.31-12.34-12.11c-5.36-2.79-11.66-4.19-18.9-4.19
				c-12.53,0-22.56,4.11-30.11,12.33c-7.55,8.23-11.32,19.21-11.32,32.94c0,14.64,3.96,26.07,11.89,34.3s18.82,12.33,32.71,12.33
				c9.51,0,17.54-2.41,24.11-7.24c6.57-4.83,11.35-11.77,14.38-20.83h-49.13v-28.52h84.21v35.99c-2.87,9.66-7.74,18.64-14.6,26.94
				c-6.87,8.3-15.59,15.02-26.15,20.15c-10.56,5.13-22.49,7.7-35.77,7.7c-15.7,0-29.7-3.43-41.99-10.3
				c-12.3-6.87-21.89-16.41-28.75-28.64c-6.87-12.23-10.3-26.19-10.3-41.88s3.43-29.69,10.3-41.99
				c6.87-12.3,16.41-21.88,28.64-28.75c12.22-6.86,26.18-10.3,41.88-10.3c19.01,0,35.05,4.61,48.11,13.81
				c13.05,9.21,21.69,21.96,25.92,38.25H2193.02z"/>
			<path class="st0" d="M2298.74,808.89v158.92h-38.71V808.89H2298.74z"/>
			<path class="st0" d="M2365.52,839.9v32.14h51.84v29.89h-51.84v34.86h58.63v31.01h-97.34V808.89h97.34v31.01H2365.52z"/>
			<path class="st0" d="M2475.53,963.73c-9.21-3.77-16.56-9.36-22.07-16.75c-5.51-7.39-8.41-16.3-8.72-26.72h41.2
				c0.6,5.89,2.64,10.38,6.11,13.47c3.47,3.1,8,4.64,13.58,4.64c5.73,0,10.26-1.32,13.58-3.96c3.32-2.64,4.98-6.3,4.98-10.98
				c0-3.92-1.32-7.17-3.96-9.74c-2.64-2.56-5.89-4.68-9.73-6.34c-3.85-1.66-9.32-3.54-16.41-5.66c-10.26-3.17-18.64-6.34-25.13-9.51
				c-6.49-3.17-12.08-7.85-16.75-14.03c-4.68-6.19-7.02-14.26-7.02-24.23c0-14.79,5.36-26.37,16.07-34.75
				c10.71-8.38,24.67-12.56,41.88-12.56c17.51,0,31.62,4.18,42.33,12.56c10.71,8.38,16.45,20.04,17.2,34.97h-41.88
				c-0.31-5.13-2.19-9.17-5.66-12.11c-3.47-2.94-7.92-4.41-13.35-4.41c-4.68,0-8.45,1.24-11.32,3.73c-2.87,2.49-4.3,6.08-4.3,10.75
				c0,5.13,2.41,9.13,7.24,12c4.83,2.87,12.37,5.96,22.64,9.28c10.26,3.48,18.6,6.79,25.02,9.96c6.41,3.17,11.96,7.77,16.64,13.81
				c4.68,6.04,7.02,13.81,7.02,23.32c0,9.05-2.3,17.28-6.9,24.67c-4.61,7.4-11.28,13.28-20.03,17.66
				c-8.75,4.38-19.1,6.57-31.02,6.57C2495.15,969.4,2484.74,967.51,2475.53,963.73z"/>
		</g>
	</g>


</svg>
